<svg width="511" height="511" viewBox="0 0 511 511" fill="none" xmlns="http://www.w3.org/2000/svg">
<path fill-rule="evenodd" clip-rule="evenodd" d="M231.234 0.620415C167.112 7.28741 110.233 35.9094 66.4117 83.5584C4.65968 150.705 -16.0313 247.992 12.8169 335.558C25.8943 375.254 46.6282 408.48 76.9176 438.279C117.043 477.755 165.837 501.426 224.227 509.743C236.099 511.434 275.362 511.406 287.69 509.699C346.306 501.58 396.763 476.537 437.332 435.43C477.699 394.528 501.35 346.068 509.745 287.058C511.418 275.294 511.418 235.822 509.745 224.058C504.956 190.394 495.13 160.004 480.321 133.058C468.632 111.787 454.982 93.5694 437.332 75.6864C397.502 35.3274 348.062 10.3864 291.188 1.96042C278.928 0.143415 243.444 -0.648585 231.234 0.620415ZM375.105 154.979C379.516 156.824 381.635 161.062 381.635 168.044C381.635 174.443 339.392 375.241 337.121 379.635C333.918 385.833 327.078 388.185 320.042 385.509C317.7 384.618 294.586 367.964 260.824 342.842L252.448 336.61L234.278 353.963C221.041 366.606 215.224 371.511 212.85 372.032C211.058 372.426 209.366 372.523 209.091 372.247C208.816 371.971 209.554 357.416 210.733 339.902L212.875 308.058L219.892 301.558C223.751 297.983 250.816 273.438 280.036 247.013C309.256 220.588 333.163 198.313 333.163 197.513C333.163 196.496 332.099 196.087 329.625 196.153C326.765 196.231 311.933 205.169 252.052 242.903C211.332 268.563 177.499 289.558 176.867 289.558C174.109 289.558 111.099 269.292 108.108 267.443C101.728 263.497 103.085 257.512 111.419 252.85C113.59 251.636 129.516 245.183 146.81 238.51C164.104 231.838 196.693 219.264 219.23 210.569C241.766 201.874 282.018 186.329 308.677 176.025C367.121 153.437 366.573 153.639 369.424 153.594C370.678 153.574 373.235 154.198 375.105 154.979Z" fill="white"/>
</svg>
