<svg width="511" height="511" viewBox="0 0 511 511" fill="none" xmlns="http://www.w3.org/2000/svg">
<g clip-path="url(#clip0_171_7)">
<path fill-rule="evenodd" clip-rule="evenodd" d="M231.642 0.59331C144.806 8.96899 67.2446 61.5453 27.9411 138.677C14.0413 165.957 5.82842 192.26 1.33448 223.889C-0.657494 237.915 -0.368498 274.201 1.86147 289.839C5.82142 317.61 14.0153 343.925 26.5731 369.205C51.4878 419.358 91.2893 459.125 141.582 484.115C223.11 524.625 319.461 519.055 395.504 469.436C425.237 450.034 453.416 421.272 472.652 390.689C479.963 379.065 491.002 356.468 496.016 342.864C501.068 329.154 506.959 305.361 509.144 289.839C511.358 274.116 511.657 237.741 509.686 223.889C503.783 182.393 490.614 147.066 468.751 114.073C459.453 100.041 450.168 88.7208 437.231 75.6457C397.347 35.3361 347.735 10.336 291.006 1.96128C278.773 0.15564 244.394 -0.636762 231.642 0.59331ZM274.941 174.926C277.106 176.025 279.806 178.196 280.941 179.751C282.927 182.468 283.008 183.852 283.055 215.724C283.107 250.765 283.662 255.96 287.649 258.751C290.351 260.641 292.064 259.973 297.33 254.973C309.106 243.794 324.49 219.548 333.678 197.686C336.535 190.886 339.949 184.248 341.263 182.935C344.599 179.601 349.48 179.191 381.029 179.591C404.48 179.889 408.427 180.164 411.24 181.695C415.685 184.114 416.255 187.31 413.669 195.314C410.579 204.881 404.801 214.124 385.599 240.218C363.555 270.176 361.618 273.82 364.631 279.663C365.25 280.863 373.281 289.489 382.477 298.832C398.477 315.086 409.443 328.351 413.58 336.454C417.262 343.664 415.287 350.285 408.392 353.849C404.384 355.919 387.195 356.612 365.436 355.577C341.21 354.427 339.91 353.776 319.913 332.761C304.191 316.237 300.556 313.321 295.677 313.321C289.616 313.321 287.783 317.083 284.483 336.304C282.661 346.913 282.252 348.036 279.15 350.926C276.16 353.713 274.894 354.137 267.648 354.777C241.22 357.115 212.652 349.315 191.007 333.853C168.889 318.053 145.336 287.554 122.009 244.51C111.58 225.266 95.5083 190.579 95.5083 187.314C95.5083 185.869 96.4412 183.503 97.5812 182.055L99.6532 179.422H124.638C139.379 179.422 151.4 179.87 153.957 180.514C160.202 182.084 163.697 186.348 169.033 198.908C180.638 226.223 201.965 257.934 210.101 259.975C215.424 261.31 217.657 257.446 219.66 243.434C220.871 234.968 220.071 204.029 218.494 198.322C217.213 193.687 212.955 189.737 206.91 187.575C203.953 186.518 201.883 185.133 201.679 184.074C200.927 180.174 206.601 175.225 214.007 173.321C215.657 172.896 229.156 172.634 244.006 172.738C268.81 172.912 271.326 173.09 274.941 174.926Z" fill="white"/>
</g>
<defs>
<clipPath id="clip0_171_7">
<rect width="511" height="511" fill="white"/>
</clipPath>
</defs>
</svg>
