<svg width="512" height="512" viewBox="0 0 512 512" fill="none" xmlns="http://www.w3.org/2000/svg">
<g clip-path="url(#clip0_171_5)">
<path fill-rule="evenodd" clip-rule="evenodd" d="M231.5 0.709003C221.871 1.606 201.62 5.283 191.5 7.971C173.585 12.731 160.472 17.642 143.5 25.95C91.499 51.404 51.192 91.716 25.963 143.5C13.992 168.072 6.60901 191.408 2.32801 218.203C-0.258992 234.396 -0.266992 277.845 2.31301 293.5C6.88801 321.256 14.143 344.25 25.975 368.5C51.261 420.322 91.502 460.555 143.5 486.002C167.687 497.839 190.691 505.103 218.5 509.687C235.653 512.514 278.811 512.24 296.5 509.192C348.645 500.205 394.974 477.278 432.425 441.925C464.986 411.189 489.746 370.202 502.565 325.817C506.236 313.106 511 287.782 511 280.98C511 278.856 511.45 276.84 512 276.5C512.616 276.12 513 267.767 513 254.774C513 243.165 512.669 233.998 512.264 234.403C511.859 234.807 510.973 230.161 510.295 224.077C505.399 180.163 485.316 132.597 456.219 96C446.54 83.825 428.152 65.44 416 55.787C378.526 26.019 334.104 7.332 287.03 1.536C275.603 0.128003 242.949 -0.357997 231.5 0.709003ZM160.782 161.553C147.533 164.765 133.895 175.104 127.774 186.575C122.133 197.146 122 198.745 122 256C122 300.013 122.25 309.539 123.533 314.465C128.093 331.972 142.97 346.187 161.24 350.494C170.574 352.695 341.426 352.695 350.76 350.494C364.425 347.273 377.991 337.11 384.226 325.425C389.867 314.854 390 313.255 390 256C390 211.987 389.75 202.461 388.467 197.535C383.907 180.028 369.03 165.813 350.76 161.506C341.764 159.384 169.549 159.427 160.782 161.553ZM220 256.073C220 290.137 220.231 297.091 221.356 296.823C222.102 296.645 238.265 287.5 257.274 276.5C282.859 261.695 291.533 256.215 290.668 255.404C288.919 253.763 222.017 215 220.934 215C220.37 215 220 231.285 220 256.073ZM0.425008 256C0.425008 267.825 0.569008 272.663 0.746008 266.75C0.923008 260.837 0.923008 251.162 0.746008 245.25C0.569008 239.338 0.425008 244.175 0.425008 256Z" fill="white"/>
</g>
<defs>
<clipPath id="clip0_171_5">
<rect width="512" height="512" fill="white"/>
</clipPath>
</defs>
</svg>
