<svg width="343" height="221" viewBox="0 0 343 221" fill="none" xmlns="http://www.w3.org/2000/svg">
<line x1="10" y1="-10" x2="156.687" y2="-10" transform="matrix(0.999982 -0.00594967 0.00602641 0.999982 88.6466 90.2561)" stroke="#FF9D00" stroke-width="20" stroke-linecap="square"/>
<path d="M253.49 144.726C253.489 150.249 257.977 154.778 263.474 154.245C283.534 152.302 302.357 144.535 316.77 132.08C333.554 117.576 342.985 97.9022 342.987 77.3863C342.99 56.8703 333.564 37.1931 316.783 22.6832C302.373 10.223 283.552 2.44992 263.493 0.499975C257.996 -0.0343727 253.507 4.49261 253.506 10.0155L253.498 77.3708L253.49 144.726Z" fill="#FF9D00"/>
<path d="M260.559 62.9979C260.538 65.157 263.48 65.8124 264.378 63.8487L286.516 15.4217C287.02 14.3188 286.434 13.0247 285.273 12.6751L274.574 9.45325C274.387 9.39699 274.193 9.36837 273.997 9.36831L263.06 9.36512C261.962 9.3648 261.07 10.2486 261.059 11.3458L260.559 62.9979Z" fill="#FFE66B"/>
<path d="M269.771 64.3022C268.758 66.1969 271.04 68.1333 272.75 66.8299L314.364 35.1129C315.368 34.3474 315.422 32.8569 314.475 32.0242L306.2 24.7499C306.054 24.621 305.889 24.5143 305.711 24.4331L295.678 19.8491C294.716 19.4096 293.577 19.7943 293.078 20.7269L269.771 64.3022Z" fill="#FFE66B"/>
<path d="M276.579 72.9374C274.717 74.0755 275.768 76.942 277.927 76.6158L333.445 68.2264C334.698 68.0371 335.461 66.7493 335.023 65.5627L331.22 55.2521C331.152 55.0686 331.058 54.896 330.94 54.7397L324.265 45.898C323.644 45.0753 322.498 44.8579 321.619 45.3957L276.579 72.9374Z" fill="#FFE66B"/>
<path d="M276.753 80.153C274.598 80.0806 273.869 82.9985 275.805 83.9476L325.217 108.179C326.238 108.679 327.469 108.23 327.928 107.19L332.419 97.0108C332.51 96.8046 332.565 96.5845 332.583 96.3598L333.539 84.1509C333.628 83.0148 332.752 82.0341 331.613 81.9959L276.753 80.153Z" fill="#FFE66B"/>
<path d="M272.902 86.7688C271.208 85.4207 268.872 87.3474 269.88 89.2614L295.223 137.37C295.778 138.423 297.128 138.761 298.116 138.094L307.636 131.676C307.832 131.544 308.003 131.378 308.141 131.186L314.531 122.317C315.154 121.452 314.988 120.253 314.154 119.589L272.902 86.7688Z" fill="#FFE66B"/>
<path d="M265.314 90.6361C264.477 88.6134 261.462 89.207 261.462 91.3946L261.462 147.172C261.462 148.374 262.518 149.305 263.713 149.157L274.669 147.8C274.813 147.783 274.954 147.749 275.09 147.701L285.176 144.138C286.256 143.757 286.794 142.551 286.357 141.493L265.314 90.6361Z" fill="#FFE66B"/>
<path d="M260.965 9.42656C365.368 26.7819 343.991 144.303 261.462 144.303" stroke="#FF9D00" stroke-width="10" stroke-linecap="round"/>
<path d="M21.8914 186.26C21.8914 181.313 23.2447 177.533 25.9514 174.92C28.6581 172.307 33.1147 171 39.3214 171H55.7014V178.7H39.3214C36.7547 178.7 34.8414 179.307 33.5814 180.52C32.3681 181.733 31.7614 183.647 31.7614 186.26V193.05H52.6214V200.75H31.7614V220H21.8914V186.26ZM65.2892 182.69C63.8426 182.69 62.6059 182.177 61.5792 181.15C60.5526 180.123 60.0392 178.887 60.0392 177.44C60.0392 176.04 60.5526 174.827 61.5792 173.8C62.6059 172.727 63.8426 172.19 65.2892 172.19C66.6892 172.19 67.9026 172.727 68.9292 173.8C70.0026 174.827 70.5392 176.04 70.5392 177.44C70.5392 178.887 70.0026 180.123 68.9292 181.15C67.9026 182.177 66.6892 182.69 65.2892 182.69ZM67.1092 220.84C64.7292 219.627 63.0726 218.25 62.1392 216.71C61.2059 215.123 60.7392 212.93 60.7392 210.13V187.1H69.8392V209.85C69.8392 211.11 70.0726 212.137 70.5392 212.93C71.0526 213.723 71.9392 214.587 73.1992 215.52L67.1092 220.84ZM88.4948 194.1V207.68C88.4948 209.64 88.7981 211.017 89.4048 211.81C90.0114 212.603 91.0381 213 92.4848 213H98.0148V220H92.4848C89.2181 220 86.6281 219.603 84.7148 218.81C82.8481 218.017 81.4948 216.733 80.6548 214.96C79.8148 213.187 79.3948 210.76 79.3948 207.68V181.99C79.3948 180.73 79.1381 179.703 78.6248 178.91C78.1581 178.117 77.2948 177.253 76.0348 176.32L82.1248 171C84.5048 172.213 86.1614 173.613 87.0948 175.2C88.0281 176.74 88.4948 178.91 88.4948 181.71V187.1H98.0148V194.1H88.4948ZM121.063 220C115.089 220 110.796 218.693 108.183 216.08C105.616 213.467 104.333 209.687 104.333 204.74V171H114.203V204.74C114.203 207.307 114.763 209.22 115.883 210.48C117.003 211.693 118.729 212.3 121.063 212.3H136.743V220H121.063ZM148.072 182.69C146.626 182.69 145.389 182.177 144.362 181.15C143.336 180.123 142.822 178.887 142.822 177.44C142.822 176.04 143.336 174.827 144.362 173.8C145.389 172.727 146.626 172.19 148.072 172.19C149.472 172.19 150.686 172.727 151.712 173.8C152.786 174.827 153.322 176.04 153.322 177.44C153.322 178.887 152.786 180.123 151.712 181.15C150.686 182.177 149.472 182.69 148.072 182.69ZM149.892 220.84C147.512 219.627 145.856 218.25 144.922 216.71C143.989 215.123 143.522 212.93 143.522 210.13V187.1H152.622V209.85C152.622 211.11 152.856 212.137 153.322 212.93C153.836 213.723 154.722 214.587 155.982 215.52L149.892 220.84ZM178.332 175.2C176.372 175.2 174.855 175.853 173.782 177.16C172.755 178.42 172.242 180.24 172.242 182.62V187.1H181.762V194.1H172.242V220H163.142V182.62C163.142 177.953 164.448 174.383 167.062 171.91C169.722 169.437 173.478 168.2 178.332 168.2H181.762V175.2H178.332ZM200.094 213.98C201.821 213.98 203.221 213.77 204.294 213.35C205.367 212.883 206.534 212.09 207.794 210.97L213.184 215.87C210.477 219.183 206.114 220.84 200.094 220.84C194.727 220.84 190.854 219.837 188.474 217.83C186.094 215.777 184.904 212.463 184.904 207.89V197.88C184.904 194.287 186.187 191.463 188.754 189.41C191.367 187.31 194.914 186.26 199.394 186.26C204.014 186.26 207.631 187.38 210.244 189.62C212.857 191.813 214.164 195.033 214.164 199.28C214.164 201.333 213.977 202.92 213.604 204.04C213.277 205.16 212.601 206 211.574 206.56C210.547 207.073 209.054 207.33 207.094 207.33H193.934V207.96C193.934 211.973 195.987 213.98 200.094 213.98ZM199.394 193.12C197.667 193.12 196.314 193.633 195.334 194.66C194.401 195.64 193.934 196.947 193.934 198.58V201.1H201.914C203.127 201.1 203.967 200.913 204.434 200.54C204.901 200.167 205.134 199.513 205.134 198.58C205.134 196.807 204.644 195.453 203.664 194.52C202.684 193.587 201.261 193.12 199.394 193.12ZM222.225 171H242.035C248.009 171 252.419 172.283 255.265 174.85C258.112 177.37 259.535 181.29 259.535 186.61C259.535 191.93 258.112 195.873 255.265 198.44C252.419 200.96 248.009 202.22 242.035 202.22H232.095V220H222.225V171ZM242.315 194.52C244.462 194.52 246.212 193.867 247.565 192.56C248.965 191.253 249.665 189.27 249.665 186.61C249.665 183.95 248.965 181.967 247.565 180.66C246.212 179.353 244.462 178.7 242.315 178.7H232.095V194.52H242.315ZM283.944 186.26C286.371 186.26 288.424 186.913 290.104 188.22L287.864 195.78C286.884 195.127 285.951 194.66 285.064 194.38C284.177 194.1 283.081 193.96 281.774 193.96C278.694 193.96 276.477 196.013 275.124 200.12V220H266.024V197.25C266.024 195.99 265.767 194.963 265.254 194.17C264.787 193.377 263.924 192.513 262.664 191.58L268.754 186.26C270.341 187.1 271.601 187.987 272.534 188.92C273.467 189.853 274.144 190.973 274.564 192.28C275.497 190.46 276.734 189.013 278.274 187.94C279.814 186.82 281.704 186.26 283.944 186.26ZM307.006 220.84C302.153 220.84 298.42 219.72 295.806 217.48C293.193 215.24 291.886 212.043 291.886 207.89V199.21C291.886 195.057 293.193 191.86 295.806 189.62C298.42 187.38 302.153 186.26 307.006 186.26C311.86 186.26 315.593 187.38 318.206 189.62C320.82 191.86 322.126 195.057 322.126 199.21V207.89C322.126 212.043 320.82 215.24 318.206 217.48C315.593 219.72 311.86 220.84 307.006 220.84ZM307.006 213.84C308.92 213.84 310.39 213.327 311.416 212.3C312.49 211.273 313.026 209.803 313.026 207.89V199.21C313.026 197.297 312.49 195.827 311.416 194.8C310.39 193.773 308.92 193.26 307.006 193.26C305.093 193.26 303.6 193.773 302.526 194.8C301.5 195.827 300.986 197.297 300.986 199.21V207.89C300.986 209.803 301.5 211.273 302.526 212.3C303.6 213.327 305.093 213.84 307.006 213.84Z" fill="#FF9D00"/>
<path d="M89.5051 147.728C89.5057 153.251 85.0179 157.779 79.5208 157.247C59.4606 155.304 40.6383 147.538 26.225 135.083C9.44094 120.579 0.0104944 100.906 0.0082931 80.3897C0.00609184 59.8738 9.43232 40.1964 26.2133 25.6862C40.6239 13.2257 59.4446 5.45223 79.5043 3.50191C85.0013 2.96746 89.49 7.49435 89.4906 13.0172L89.4978 80.3725L89.5051 147.728Z" fill="#FF9D00"/>
<path d="M82.4381 66.0014C82.4591 68.1605 79.517 68.816 78.6193 66.8522L56.4812 18.4252C55.977 17.3223 56.5624 16.0282 57.7234 15.6786L68.4233 12.4567C68.6101 12.4005 68.8042 12.3719 68.9994 12.3718L79.9373 12.3686C81.0345 12.3683 81.9272 13.2521 81.9378 14.3493L82.4381 66.0014Z" fill="#FFE66B"/>
<path d="M73.2254 67.3057C74.2388 69.2004 71.9572 71.1368 70.247 69.8334L28.6326 38.1164C27.6282 37.3509 27.5749 35.8603 28.522 35.0277L36.7964 27.7534C36.943 27.6245 37.1077 27.5178 37.2854 27.4366L47.3185 22.8526C48.2804 22.4131 49.4196 22.7978 49.9184 23.7304L73.2254 67.3057Z" fill="#FFE66B"/>
<path d="M66.4182 75.9409C68.2793 77.079 67.2284 79.9455 65.0696 79.6193L9.55131 71.2299C8.29866 71.0406 7.53576 69.7528 7.9734 68.5662L11.7762 58.2556C11.8439 58.0721 11.9383 57.8994 12.0562 57.7432L18.7313 48.9015C19.3524 48.0788 20.4982 47.8614 21.3778 48.3992L66.4182 75.9409Z" fill="#FFE66B"/>
<path d="M66.2442 83.1565C68.3986 83.0841 69.1275 86.002 67.1921 86.9511L17.779 111.182C16.7588 111.683 15.5272 111.234 15.0685 110.194L10.5778 100.014C10.4868 99.8081 10.4314 99.588 10.4137 99.3633L9.45689 87.1544C9.36786 86.0183 10.2446 85.0376 11.3835 84.9994L66.2442 83.1565Z" fill="#FFE66B"/>
<path d="M70.0949 89.7723C71.7893 88.4242 74.125 90.3509 73.1167 92.2649L47.7732 140.373C47.2184 141.427 45.869 141.765 44.8802 141.098L35.3609 134.679C35.1648 134.547 34.9937 134.381 34.8556 134.19L28.4657 125.32C27.8429 124.456 28.0084 123.256 28.8422 122.593L70.0949 89.7723Z" fill="#FFE66B"/>
<path d="M77.6833 93.6395C78.5202 91.6168 81.5349 92.2105 81.5349 94.398L81.5349 150.175C81.5349 151.378 80.4792 152.309 79.2843 152.161L68.3274 150.804C68.1839 150.786 68.0427 150.753 67.9064 150.705L57.8203 147.142C56.7409 146.76 56.2027 145.554 56.6401 144.497L77.6833 93.6395Z" fill="#FFE66B"/>
<path d="M82.032 12.4301C-22.3722 29.7854 -0.994294 147.306 81.5348 147.306" stroke="#FF9D00" stroke-width="10" stroke-linecap="round"/>
</svg>
